<svg id="Layer_1" xmlns="http://www.w3.org/2000/svg" width="800" height="800"
viewBox="0 0 800 800">
    <switch>
        <g>
            <path fill="#BCBEC0" d="M778.98,381.771c10.44,209.354-150.812,387.555-360.184,397.997 C209.431,790.201,31.233,628.943,20.793,419.576C10.354,210.209,171.618,32.02,380.986,21.574 C590.35,11.138,768.538,172.401,778.98,381.771z"
            />
            <path fill="#808285" d="M346.163,604.285c-5.664,2.844-11.994,4.579-18.727,4.904c-26.01,1.295-48.143-18.723-49.438-44.733 c-0.967-19.431,9.976-36.69,26.422-44.727c-13.272-30.739-25.258-62.973-35.724-96.503c-4.139,0.779-8.376,1.311-12.689,1.533 c-51.182,2.55-94.738-36.866-97.29-88.053c-2.261-45.302,28.375-84.618,70.956-94.813c-7.47-62.394-8.479-122.618-3.549-178.768 C97.836,129.262,13.135,266.027,20.793,419.576c10.44,209.367,188.63,370.631,398.004,360.192 c19.402-0.969,38.397-3.392,56.873-7.138C428.182,728.694,383.97,671.535,346.163,604.285z"
            />
            <path fill="#808285" d="M172.604,335.834c2.12,42.469,38.28,75.176,80.75,73.062c42.475-2.125,75.185-38.265,73.065-80.734 c-2.122-42.47-38.261-75.194-80.734-73.071C203.219,257.208,170.49,293.359,172.604,335.834z"
            />
            <path fill="#808285" d="M449.797,375.627c2.121,42.468,38.281,75.177,80.75,73.062c42.475-2.125,75.185-38.266,73.066-80.734 c-2.123-42.47-38.262-75.194-80.735-73.071C480.411,297,447.684,333.151,449.797,375.627z"
            />
            <path fill="#808285" d="M284.507,564.132c1.119,22.42,20.188,39.679,42.607,38.56c22.42-1.117,39.675-20.185,38.551-42.61 c-1.121-22.405-20.184-39.671-42.602-38.553C300.645,522.648,283.384,541.723,284.507,564.132z"
            />
            <path fill="#808285" d="M507.064,572.207c0.536,10.569,9.532,18.691,20.094,18.161c10.553-0.524,18.695-9.51,18.164-20.069 c-0.537-10.557-9.516-18.703-20.076-18.174C514.684,552.653,506.552,561.651,507.064,572.207z"
            />
            <path fill="#808285" d="M673.615,286.432c0.521,10.564,9.516,18.686,20.068,18.161c10.576-0.527,18.696-9.509,18.18-20.068 c-0.53-10.562-9.518-18.689-20.084-18.166C681.229,266.886,673.084,275.867,673.615,286.432z"
            />
            <path fill="#808285" d="M657.514,443.018c0.439,8.75,7.888,15.491,16.64,15.051c8.752-0.432,15.493-7.882,15.058-16.631 c-0.438-8.756-7.887-15.497-16.639-15.057C663.822,426.814,657.078,434.262,657.514,443.018z"
            />
            <path fill="#808285" d="M541.758,664.69c0.531,10.566,9.512,18.698,20.07,18.166c10.566-0.523,18.703-9.515,18.184-20.08 c-0.538-10.555-9.517-18.688-20.086-18.154C549.367,645.141,541.238,654.126,541.758,664.69z"
            />
            <path fill="#808285" d="M613.567,602.58c0.298,5.957,5.372,10.551,11.323,10.244c5.941-0.286,10.541-5.365,10.24-11.313 c-0.304-5.96-5.361-10.547-11.317-10.248C617.867,591.559,613.275,596.619,613.567,602.58z"
            />
            <path fill="#808285" d="M553.843,138.298c0.306,5.951,5.374,10.536,11.317,10.237c5.957-0.3,10.539-5.354,10.25-11.316 c-0.306-5.951-5.373-10.532-11.318-10.236C558.135,127.281,553.552,132.348,553.843,138.298z"
            />
            <path fill="#808285" d="M295.631,188.335c0.303,5.961,5.371,10.532,11.323,10.226c5.947-0.292,10.539-5.354,10.24-11.31 c-0.292-5.948-5.36-10.534-11.317-10.235C299.928,177.308,295.336,182.381,295.631,188.335z"
            />
            <path fill="#808285" d="M250.844,105.889c0.297,5.956,5.355,10.543,11.319,10.239c5.952-0.289,10.534-5.361,10.238-11.314 c-0.295-5.953-5.36-10.534-11.317-10.236C255.136,94.87,250.548,99.935,250.844,105.889z"
            />
            <path fill="#808285" d="M422.062,147.965c0.303,5.947,5.375,10.536,11.324,10.243c5.955-0.298,10.541-5.367,10.242-11.322 c-0.287-5.959-5.369-10.528-11.316-10.236C426.354,136.948,421.771,142.001,422.062,147.965z"
            />
            <path fill="#808285" d="M462.439,701.401c0.307,5.969,5.368,10.547,11.328,10.25c5.955-0.302,10.537-5.356,10.24-11.327 c-0.292-5.948-5.368-10.527-11.316-10.234C466.734,690.387,462.148,695.455,462.439,701.401z"
            />
            <path fill="#808285" d="M373.877,80.584c0.53,10.562,9.511,18.695,20.072,18.166c10.56-0.53,18.695-9.51,18.172-20.076 c-0.526-10.558-9.518-18.688-20.078-18.16C381.475,61.036,373.349,70.022,373.877,80.584z"
            />
            <path fillRule="evenodd" clipRule="evenodd" fill="#808285" d="M390.274,529.115c3.782,3.946,6.253,8.689,8.016,13.854 c1.438,4.212,2.416,8.507,2.905,12.922c0.629,5.547-0.115,10.92-2.187,16.092c-0.601,1.496-1.345,2.936-2.027,4.397 c-0.626,0.57-1.465,1.516-0.519,0.912c-1.54,0.982-1.638,0.928-3.035,1.301c-2.896,0.771-4.872,2.343-6.051,4.297 c-1.056,0.276-2.125,0.518-3.188,0.762c-0.462,0.105-0.974-0.03-1.574-0.067c1.159-1.877,2.337-3.564,3.287-5.375 c1.488-2.834,2.976-5.688,4.18-8.647c1.874-4.623,3.348-9.387,2.987-14.479c-0.287-3.955-0.943-7.848-2.277-11.597 c-0.704-1.975-1.336-3.993-2.275-5.859c-1.885-3.755-3.943-7.432-5.959-11.123c-0.749-1.353-1.594-2.659-2.395-3.982 c0.121-0.047,0.233-0.099,0.353-0.146c0.83,0.451,1.627,0.992,2.507,1.327C385.948,524.834,388.176,526.925,390.274,529.115z"
            />
        </g>
    </switch>
</svg>
