<svg id="Layer_1" xmlns="http://www.w3.org/2000/svg" width="800" height="800" viewBox="0 0 800 800">
	<switch>
		<g>
			<path fill="#BCBEC0" d="M92.622,177.832C215.684,8.145,453.02-29.669,622.722,93.402 c169.692,123.075,207.5,360.412,84.43,530.109S346.743,831.007,177.042,707.94C7.35,584.87-30.448,347.533,92.622,177.832z"
			/>
			<path fill="#808285" d="M569.352,275.67c6.196,1.334,12.217,3.948,17.667,7.914c21.08,15.291,25.783,44.76,10.491,65.841 c-11.423,15.747-30.767,22.341-48.619,18.297c-8.921,32.271-19.78,64.9-32.638,97.589c3.713,1.986,7.349,4.228,10.85,6.758 c41.482,30.088,50.724,88.1,20.635,129.587c-26.628,36.721-75.14,48.159-114.712,29.419 c-33.279,53.304-70.234,100.866-109.264,141.534c141.418,28.857,293.132-24.64,383.39-149.097 c123.07-169.697,85.272-407.034-84.43-530.109c-15.728-11.404-32.048-21.42-48.793-30.08 C583.401,127.321,582.034,199.571,569.352,275.67z"
			/>
			<path fill="#808285" d="M542.802,598.3c27.538-37.977,19.063-91.096-18.909-118.639c-37.982-27.539-91.091-19.083-118.629,18.894 c-27.539,37.978-19.094,91.096,18.889,118.635C462.125,644.729,515.253,636.277,542.802,598.3z"
			/>
			<path fill="#808285" d="M592.235,345.6c13.178-18.173,9.135-43.573-9.038-56.751c-18.171-13.179-43.567-9.134-56.745,9.047 c-13.167,18.163-9.133,43.563,9.038,56.741C553.662,367.813,579.067,363.766,592.235,345.6z"
			/>
			<path fill="#808285" d="M339.694,414.935c13.178-18.171,9.134-43.567-9.037-56.744c-18.172-13.178-43.567-9.134-56.745,9.046 c-13.168,18.163-9.135,43.558,9.036,56.736C301.121,437.15,326.525,433.107,339.694,414.935z"
			/>
			<path fill="#808285" d="M423.861,199.834c6.206-8.572,4.286-20.539-4.276-26.744c-8.552-6.205-20.528-4.306-26.732,4.256 c-6.197,8.562-4.306,20.538,4.256,26.744C405.671,210.297,417.646,208.381,423.861,199.834z"
			/>
			<path fill="#808285" d="M114.982,318.158c6.216-8.559,4.296-20.524-4.257-26.729c-8.572-6.216-20.528-4.306-26.743,4.247 c-6.206,8.562-4.295,20.528,4.267,26.742C96.802,328.619,108.777,326.724,114.982,318.158z"
			/>
			<path fill="#808285" d="M249.302,225.16c9.211-12.706,6.38-30.477-6.332-39.688c-12.702-9.223-30.477-6.391-39.689,6.312 c-9.221,12.714-6.389,30.487,6.323,39.699C222.306,240.699,240.08,237.874,249.302,225.16z"
			/>
			<path fill="#808285" d="M454.784,106.022c6.207-8.567,4.306-20.532-4.256-26.734c-8.562-6.215-20.538-4.306-26.754,4.253 c-6.195,8.562-4.296,20.527,4.275,26.734C436.603,116.489,448.568,114.58,454.784,106.022z"
			/>
			<path fill="#808285" d="M359.901,109.421c3.501-4.828,2.426-11.588-2.404-15.077c-4.81-3.502-11.577-2.426-15.069,2.398 c-3.499,4.835-2.433,11.578,2.396,15.078C349.643,115.316,356.393,114.25,359.901,109.421z"
			/>
			<path fill="#808285" d="M115.487,508.654c3.491-4.829,2.414-11.578-2.404-15.069c-4.83-3.5-11.568-2.434-15.079,2.396 c-3.491,4.828-2.414,11.573,2.404,15.068C105.237,514.55,111.985,513.473,115.487,508.654z"
			/>
			<path fill="#808285" d="M348.063,631.478c3.499-4.835,2.414-11.573-2.416-15.064c-4.818-3.5-11.568-2.434-15.067,2.396 c-3.501,4.818-2.425,11.568,2.404,15.068C337.804,637.378,344.562,636.302,348.063,631.478z"
			/>
			<path fill="#808285" d="M331.297,723.794c3.501-4.827,2.434-11.572-2.404-15.073c-4.819-3.505-11.568-2.424-15.069,2.4 c-3.5,4.824-2.424,11.568,2.405,15.069C321.047,729.69,327.797,728.619,331.297,723.794z"
			/>
			<path fill="#808285" d="M408.628,407.014c3.49-4.824,2.414-11.578-2.405-15.079c-4.828-3.5-11.578-2.424-15.077,2.405 c-3.511,4.824-2.414,11.568,2.404,15.068C398.379,412.909,405.118,411.843,408.628,407.014z"
			/>
			<path fill="#808285" d="M539.601,127.121c3.502-4.843,2.426-11.582-2.404-15.086c-4.829-3.496-11.567-2.43-15.078,2.409 c-3.5,4.818-2.414,11.568,2.405,15.067C529.352,133.014,536.102,131.938,539.601,127.121z"
			/>
			<path fill="#808285" d="M219.562,666.41c6.206-8.562,4.305-20.528-4.257-26.734c-8.562-6.205-20.528-4.306-26.743,4.256 c-6.206,8.559-4.295,20.528,4.267,26.734C201.391,676.883,213.355,674.972,219.562,666.41z"
			/>
			<path fillRule="evenodd" clipRule="evenodd" fill="#808285" d="M210.36,353.086c0.921-2.027,2.064-3.986,2.715-6.096 c2.181-7.04,6.719-12.586,11.51-17.842c8.649-9.498,19.354-16.038,31.164-20.998c9.64-4.049,19.54-7.021,29.799-8.888 c12.906-2.355,25.609-1.483,38.059,2.55c3.744,1.213,7.37,2.794,11.046,4.21c0.601,0.231,1.202,0.436,2.151,0.271 c-2.229-3.18-4.218-6.584-6.758-9.502c-4.664-5.357-9.667-10.415-14.477-15.646c-0.814-0.887-1.367-2.025-2.037-3.049 c0.242-0.233,0.476-0.466,0.718-0.699c1.3,0.768,2.744,1.357,3.888,2.318c9.009,7.66,16.563,16.586,22.556,26.771 c3.094,5.252,6.021,10.629,8.562,16.165c1.765,3.815,2.831,7.962,4.043,12.005c0.33,1.057,0.087,2.288,0.116,3.699 c-4.596-2.419-8.746-4.906-13.129-6.837c-6.875-3.029-13.8-6.064-20.927-8.401c-11.131-3.66-22.524-6.352-34.403-4.684 c-9.212,1.305-18.229,3.463-26.791,7.186c-4.519,1.959-9.135,3.771-13.353,6.264c-8.494,5.022-16.786,10.425-25.105,15.752 c-3.055,1.963-5.964,4.16-8.94,6.25C210.631,353.613,210.495,353.352,210.36,353.086z"
			/>
			<path fillRule="evenodd" clipRule="evenodd" fill="#808285" d="M340.654,582.417c-3.986-6.342-5.992-13.392-6.934-20.81 c-0.766-6.051-0.892-12.087-0.329-18.147c0.688-7.62,3.17-14.627,7.38-20.998c1.222-1.842,2.617-3.567,3.937-5.343 c0.998-0.592,2.385-1.629,0.949-1.081c2.338-0.892,2.454-0.791,4.432-0.907c4.102-0.232,7.186-1.799,9.31-4.096 c1.493-0.078,2.996-0.107,4.489-0.142c0.649-0.014,1.3,0.311,2.094,0.524c-2.074,2.2-4.121,4.14-5.896,6.308 c-2.782,3.394-5.565,6.812-7.999,10.453c-3.792,5.687-7.088,11.675-8.01,18.611c-0.707,5.388-0.901,10.794-0.146,16.194 c0.398,2.847,0.689,5.73,1.436,8.494c1.493,5.562,3.239,11.064,4.927,16.576c0.631,2.023,1.405,4.01,2.114,6.008 c-0.175,0.029-0.34,0.068-0.515,0.098c-0.988-0.835-1.91-1.779-2.996-2.474C345.279,589.359,342.865,585.936,340.654,582.417z"
			/>
			<path fillRule="evenodd" clipRule="evenodd" fill="#808285" d="M624.118,247.405c-1.697-1.444-3.577-2.721-5.062-4.345 c-4.994-5.43-11.461-8.494-18.046-11.194c-11.879-4.872-24.357-6.206-37.157-5.624c-10.443,0.47-20.664,2.027-30.739,4.736 c-12.663,3.398-23.776,9.63-33.298,18.607c-2.86,2.697-5.459,5.678-8.184,8.529c-0.437,0.466-0.894,0.91-1.823,1.169 c0.648-3.831,0.998-7.758,2.045-11.481c1.92-6.837,4.267-13.551,6.381-20.339c0.35-1.153,0.359-2.42,0.534-3.632 c-0.32-0.106-0.641-0.218-0.951-0.324c-0.853,1.246-1.899,2.41-2.521,3.768c-4.859,10.771-7.865,22.079-8.912,33.852 c-0.552,6.064-0.892,12.178-0.813,18.268c0.038,4.209,0.853,8.407,1.483,12.586c0.165,1.096,0.901,2.1,1.483,3.385 c3.121-4.15,5.799-8.174,8.93-11.795c4.927-5.688,9.872-11.39,15.312-16.559c8.494-8.077,17.629-15.389,29.081-18.966 c8.892-2.765,17.957-4.685,27.286-4.985c4.927-0.164,9.881-0.504,14.759-0.058c9.822,0.901,19.625,2.229,29.43,3.481 c3.606,0.461,7.176,1.202,10.753,1.812C624.089,247.997,624.099,247.696,624.118,247.405z"
			/>
		</g>
	</switch>
</svg>
